# xmcd
#
# Track frame offsets: 
#        150
#        16321
#        30000
#        46286
#        60049
#        75661
#        89277
#        105367
#        121587
#        137779
#        150214
#        164586
#
# Disc length: 2440 seconds
#
# Revision: 0
# Processed by: cddbd v1.5.2PL0 Copyright (c) Steve Scherf et al.
# Submitted via: ExactAudioCopy v1.3
#
DISCID=7409860c
DTITLE=Crimson House - Bounceology
DYEAR=2019
DGENRE=Blues Rock
TTITLE0=Unicorns
TTITLE1=Bantu Bird
TTITLE2=Wild and Free
TTITLE3=Carmen
TTITLE4=Pot Of Gold
TTITLE5=Magic Charms
TTITLE6=Mama Land
TTITLE7=Take A Chance
TTITLE8=Free To Dream
TTITLE9=Medicine
TTITLE10=On The Prowl
TTITLE11=Jo Bounce
EXTD=
EXTT0=
EXTT1=
EXTT2=
EXTT3=
EXTT4=
EXTT5=
EXTT6=
EXTT7=
EXTT8=
EXTT9=
EXTT10=
EXTT11=
PLAYORDER=
